<svg xmlns="http://www.w3.org/2000/svg" viewBox="0 0 48 48"><defs><style>.a{fill:#a7acfe;}.b,.c{fill:none;stroke:#a7acfe;stroke-miterlimit:10;stroke-width:2px;}.c{stroke-dasharray:3.15 1.05;}.d{fill:#ff7e39;}</style></defs><title>icon_updown</title><path class="a" d="M24,48A24,24,0,0,1,3.56,11.41l.85.52a23,23,0,0,0,32.64,31l.57.83A23.9,23.9,0,0,1,24,48Z"/><path class="a" d="M11,5l-.57-.82A23.9,23.9,0,0,1,24,0h0A24,24,0,0,1,35.16,2.75l-.46.88A23.07,23.07,0,0,0,24,1h0A22.86,22.86,0,0,0,11,5Z"/><path class="a" d="M43.66,37.77l-.82-.57A23,23,0,0,0,43,11l.82-.57a24,24,0,0,1-.13,27.35Z"/><circle class="b" cx="3" cy="3" r="2"/><circle class="b" cx="45" cy="45" r="2"/><path class="b" d="M25.79,27.16l-4.21,4.21a2.5,2.5,0,0,0,0,3.53h0a2.5,2.5,0,0,0,3.54,0l3.24-3.24a2.43,2.43,0,0,1,3.42,0L43.12,43"/><line class="b" x1="21.04" y1="22.25" x2="22.1" y2="21.19"/><path class="c" d="M22.84,20.44l1.75-1.74a3.4,3.4,0,0,1,4.83,0h0a3.4,3.4,0,0,1,0,4.83l-2.2,2.2"/><line class="b" x1="26.85" y1="26.1" x2="25.79" y2="27.16"/><path class="b" d="M4.88,5l7.81,7.8a2.4,2.4,0,0,0,3.41,0l2-2a2.43,2.43,0,0,1,3.42,0h0a2.43,2.43,0,0,1,0,3.42L13.1,22.65a2.67,2.67,0,0,0,0,3.77h0a2.67,2.67,0,0,0,3.77,0L21,22.25"/><polygon class="d" points="37.97 5.5 32.94 10.52 32.94 8.51 30.94 8.51 30.94 15.35 39.38 6.91 37.97 5.5"/><polygon class="d" points="31.82 16.97 33.23 18.39 38.26 13.36 38.26 15.38 40.26 15.38 40.26 8.53 31.82 16.97"/></svg>