<svg xmlns="http://www.w3.org/2000/svg" viewBox="0 0 48 48"><defs><style>.a{fill:#f90;}.b{opacity:0.2;}.c,.d{fill:#a7acfe;}.d{opacity:0.5;}.e{fill:#d4dafc;}</style></defs><title>icon_box</title><path class="a" d="M19.81,48V43.43C8.61,42.67,0,37,0,30.55c0-3.88,3-7.46,8.08-9.83l1.06-.53v5.33l-.23.23A2.89,2.89,0,0,0,7.62,28c0,2.82,5.18,5.48,12.19,6.25V29.87l12.72,9.06ZM7.62,22.55c-3.89,2.06-6.1,4.95-6.1,7.93,0,5.79,8.54,10.89,19.13,11.42h.68V45l8.61-6.17-8.61-6.09v3.12l-.83-.08C11.89,35.05,6.1,31.85,6.1,28a4.23,4.23,0,0,1,1.52-3.2Zm23.69,12.5-.15-1.53c4.8-.38,9.22-3,9.22-5.33a3.73,3.73,0,0,0-.61-1.9l1.3-.84A4.9,4.9,0,0,1,42,28.19c-.08,3.28-4.8,6.32-10.67,6.86Z"/><g class="b"><path class="a" d="M39.92,38.78l-.61-1.37c4.58-2.13,7.17-5.18,7.17-8.46C46.48,26.36,44.65,24,41,22l.76-1.37C45.94,22.93,48,25.75,48,29c0,3.89-3,7.47-8.08,9.83Z"/></g><path class="a" d="M19.81,38.1h1.52v1.52H19.81Zm3.05,0h1.52v1.52H22.86Z"/><g class="b"><polygon class="c" points="25.46 0 11.25 3.83 25.46 6.39 39.67 1.83 25.46 0"/></g><polygon class="d" points="11.25 3.83 11.25 26.2 25.46 30.75 25.46 6.39 11.25 3.83"/><polygon class="d" points="11.25 14.39 25.46 17.41 25.46 14.8 11.25 11.78 11.25 14.39"/><polygon class="c" points="39.67 1.83 39.67 23.2 25.46 30.75 25.46 6.39 39.67 1.83"/><g class="b"><polygon class="e" points="25.46 17.53 39.67 11.51 39.67 8.9 25.46 14.92 25.46 17.53"/></g></svg>