<svg xmlns="http://www.w3.org/2000/svg" viewBox="0 0 48 48.02"><defs><style>.a{fill:#ffccbc;}.b,.d{fill:#fff;}.b,.c{stroke:#ff8a65;stroke-linecap:round;stroke-linejoin:round;stroke-width:2px;}.c{fill:none;}.e{fill:#ff8a65;}</style></defs><title>icon_cogs</title><path class="a" d="M0,24a24,24,0,0,0,48,0v0A24,24,0,0,0,0,24Z"/><line class="b" x1="24" y1="24.01" x2="35.02" y2="24.01"/><polyline class="c" points="31.91 16.17 24.12 23.96 24 24.08 31.68 31.75"/><path class="c" d="M26.5,13.31v-1.2a1.6,1.6,0,0,0-1.6-1.6H23.1a1.6,1.6,0,0,0-1.6,1.6h0a1.59,1.59,0,0,1-1.09,1.51,10.83,10.83,0,0,0-1.22.51,1.6,1.6,0,0,1-1.84-.3h0a1.59,1.59,0,0,0-2.26,0L13.82,15.1a1.59,1.59,0,0,0,0,2.26h0a1.6,1.6,0,0,1,.3,1.83,9.38,9.38,0,0,0-.51,1.23,1.6,1.6,0,0,1-1.51,1.08h0a1.6,1.6,0,0,0-1.6,1.6v1.8a1.6,1.6,0,0,0,1.6,1.6h0a1.59,1.59,0,0,1,1.51,1.09,9.25,9.25,0,0,0,.51,1.22,1.62,1.62,0,0,1-.3,1.84h0a1.59,1.59,0,0,0,0,2.26l1.27,1.27a1.59,1.59,0,0,0,2.26,0h0a1.6,1.6,0,0,1,1.84-.29,10.77,10.77,0,0,0,1.22.5,1.61,1.61,0,0,1,1.09,1.51h0a1.6,1.6,0,0,0,1.6,1.6h1.8a1.6,1.6,0,0,0,1.6-1.6v-1.2"/><path class="d" d="M33.21,36.55a3.5,3.5,0,1,1,0-7,3.44,3.44,0,0,1,2.47,1,3.5,3.5,0,0,1-2.47,6Z"/><path class="e" d="M33.21,30.55A2.5,2.5,0,0,1,35,34.82a2.45,2.45,0,0,1-1.76.73,2.5,2.5,0,0,1-1.77-4.27,2.53,2.53,0,0,1,1.77-.73m0-2a4.51,4.51,0,1,0,3.18,1.32,4.48,4.48,0,0,0-3.18-1.32Z"/><circle class="d" cx="37.02" cy="23.84" r="3.5"/><path class="e" d="M37,21.34a2.5,2.5,0,1,1-2.5,2.5,2.5,2.5,0,0,1,2.5-2.5m0-2a4.5,4.5,0,1,0,4.5,4.5,4.51,4.51,0,0,0-4.5-4.5Z"/><path class="d" d="M33.21,18.14a3.51,3.51,0,1,1,2.47-1A3.49,3.49,0,0,1,33.21,18.14Z"/><path class="e" d="M33.21,12.14a2.45,2.45,0,0,1,1.76.73,2.5,2.5,0,0,1-1.76,4.27,2.53,2.53,0,0,1-1.77-.73,2.5,2.5,0,0,1,1.77-4.27m0-2a4.5,4.5,0,1,0,3.18,1.32,4.48,4.48,0,0,0-3.18-1.32Z"/></svg>