<svg xmlns="http://www.w3.org/2000/svg" viewBox="0 0 48 48"><defs><style>.a{fill:#ffe2ba;}.b{fill:#fff;}.c{fill:#ffb043;}</style></defs><title>icon_file_1</title><path class="a" d="M0,24A24,24,0,1,0,24,0,24,24,0,0,0,0,24Z"/><path class="b" d="M13.55,12.18h7l1.5,4.73,12.6-.09a2.63,2.63,0,0,1,2.65,2.63V33.19a2.63,2.63,0,0,1-2.63,2.63H13.55a2.63,2.63,0,0,1-2.63-2.63V14.82A2.63,2.63,0,0,1,13.55,12.18Z"/><path class="c" d="M34.73,37H12.79A2.86,2.86,0,0,1,10,33.92V14.14A2.91,2.91,0,0,1,12.79,11h8.1a.89.89,0,0,1,.85.69l.9,3.8H34.73A3.3,3.3,0,0,1,38,18.62v15.3A3.26,3.26,0,0,1,34.73,37Zm1.52-18.38a1.55,1.55,0,0,0-1.52-1.34H22a.88.88,0,0,1-.85-.69l-.9-3.79H12.79c-.7,0-1,.61-1,1.34V33.92c0,.72.34,1.29,1,1.29H34.73a1.51,1.51,0,0,0,1.52-1.29V18.62ZM33.08,33.86H28.57a.45.45,0,0,1,0-.89h4.51c.44,0,1,0,1-1V30.3a.44.44,0,0,1,.88,0v1.66a1.74,1.74,0,0,1-1.86,1.92ZM34.3,28.7a.54.54,0,0,1-.32-.13.49.49,0,0,1,0-.64.45.45,0,0,1,.63,0,.49.49,0,0,1,0,.64A.53.53,0,0,1,34.3,28.7Zm1.27-15H24.64a.9.9,0,0,1,0-1.79H35.57a.9.9,0,0,1,0,1.79Z"/></svg>