<?xml version="1.0" standalone="no"?><!DOCTYPE svg PUBLIC "-//W3C//DTD SVG 1.1//EN" "http://www.w3.org/Graphics/SVG/1.1/DTD/svg11.dtd"><svg t="1540267668038" class="icon" style="" viewBox="0 0 1024 1024" version="1.1" xmlns="http://www.w3.org/2000/svg" p-id="9533" data-spm-anchor-id="a313x.7781069.0.i32" xmlns:xlink="http://www.w3.org/1999/xlink" width="200" height="200"><defs><style type="text/css"></style></defs><path d="M731.3 407.5c-11.5-1.6-84.3-1.4-84.3-1.4v143s128.2 5.3 141.6 0.4c19.4-53.2-42.3-139.3-57.3-142z" fill="#a7acfe" p-id="9534" data-spm-anchor-id="a313x.7781069.0.i30" class="selected"></path><path d="M512 61C264.6 61 64 261.6 64 509s200.6 448 448 448 448-200.6 448-448S759.4 61 512 61zM304.8 737.9c-24 0-43.4-19.4-43.4-43.4s19.4-43.4 43.4-43.4 43.4 19.4 43.4 43.4-19.4 43.4-43.4 43.4z m270.9-46.4c0.7 10.2-13.4 14.9-13.4 14.9s-168.2-0.6-185.6-1c7.6-80.7-54-81.3-68.8-84.8-73.1 4.7-72.8 51.2-73 85.3-21.7 7.3-38.8-1.1-42.4-14.2-0.6-12.5-0.2-371-0.4-369 3.6-42.8 41.9-43.3 44.4-43 2.4 0.2 337.9-1.3 339.5 0 1.5 1.3-0.7 398-0.3 411.8z m152.1 47.3c-24 0-43.4-19.4-43.4-43.4s19.4-43.4 43.4-43.4 43.4 19.4 43.4 43.4-19.4 43.4-43.4 43.4z m75.3-32.7s4.7-75.1-69.1-82.9c-74-7.7-86.8 75.5-87.1 82.1-5.6 4.8-42.3 2.6-42.3 2.6s0.6-335-0.7-342.4c2.7-13.5 14.9-14.4 14.9-14.4s80.9-1.1 85.2 0.2c4.3 1.3 106.2 26.1 127.5 144.4 1.1 100.7-0.6 210.2-0.6 210.2l-27.8 0.2z" fill="#a7acfe" p-id="9535" data-spm-anchor-id="a313x.7781069.0.i24" class="selected"></path></svg>