<svg xmlns="http://www.w3.org/2000/svg" viewBox="0 0 48 48"><defs><style>.a{fill:#dcedc8;}.b,.c{fill:none;stroke:#9ccc65;stroke-miterlimit:10;stroke-width:2px;}.c{stroke-dasharray:3.15 1.05;}.d{fill:#9ccc65;}</style></defs><title>icon_updown</title><path class="a" d="M0,24A24,24,0,1,0,24,0,24,24,0,0,0,0,24Z"/><path class="b" d="M25.79,27.16l-4.21,4.21a2.5,2.5,0,0,0,0,3.53h0a2.5,2.5,0,0,0,3.54,0l3.24-3.24a2.43,2.43,0,0,1,3.42,0L41,40.91"/><line class="b" x1="21.04" y1="22.25" x2="22.1" y2="21.19"/><path class="c" d="M22.84,20.44l1.75-1.74a3.4,3.4,0,0,1,4.83,0h0a3.4,3.4,0,0,1,0,4.83l-2.2,2.2"/><line class="b" x1="26.85" y1="26.1" x2="25.79" y2="27.16"/><path class="b" d="M7,7.09l5.72,5.72a2.41,2.41,0,0,0,3.41,0l2-2a2.43,2.43,0,0,1,3.42,0h0a2.43,2.43,0,0,1,0,3.42L13.1,22.65a2.67,2.67,0,0,0,0,3.77h0a2.67,2.67,0,0,0,3.77,0L21,22.25"/><path class="d" d="M40.62,30.4a1,1,0,0,0-1,1v1l-2.86-2.86A1,1,0,1,0,35.34,31l6.28,6.27V31.4A1,1,0,0,0,40.62,30.4Z"/><path class="d" d="M5.39,11.72a1,1,0,0,0,0,1.42l3.11,3.1h-1a1,1,0,0,0,0,2h5.85L6.81,11.72A1,1,0,0,0,5.39,11.72Z"/></svg>