<svg xmlns="http://www.w3.org/2000/svg" viewBox="0 0 72 140"><defs><style>.a{fill:#a7acfe;}.b{fill:none;stroke-linecap:round;}.b,.c{stroke:#a7acfe;stroke-miterlimit:10;}.c{fill:#fff;}</style></defs><title>icon_delivery_big</title><rect class="a" y="138" width="72" height="2"/><circle class="a" cx="18.87" cy="134.34" r="3.59"/><path class="a" d="M41.29,100c-.13-.1-27.87,0-28.07,0a3.61,3.61,0,0,0-3.67,3.56c0-.17,0,29.47,0,30.51.29,1.08,1.71,1.77,3.5,1.17,0-2.82,0-6.66,6-7.05,1.22.29,6.31.34,5.69,7,1.43,0,15.34.08,15.34.08s1.17-.39,1.11-1.23h0C41.23,133,41.42,100.15,41.29,100Z"/><circle class="a" cx="53.84" cy="134.41" r="3.59"/><path class="a" d="M62.42,117.9A14.81,14.81,0,0,0,51.87,106c-.35-.1-7,0-7,0a1.41,1.41,0,0,0-1.23,1.19c.11.61.06,28.31.06,28.31s3,.18,3.49-.22c0-.55,1.09-7.42,7.2-6.79s5.72,6.86,5.72,6.86h0l2.3,0S62.51,126.23,62.42,117.9Z"/><path class="b" d="M55.89,22.23H13.42A12.34,12.34,0,0,0,1.08,34.56h0A12.35,12.35,0,0,0,13.42,46.9H54.33A16.66,16.66,0,0,1,71,63.56h0A16.67,16.67,0,0,1,54.33,80.23H37.25A12.33,12.33,0,0,0,24.92,92.56V102"/><path class="a" d="M60.76,2a6.44,6.44,0,0,0-9.31,0,6.89,6.89,0,0,0,0,9.53l4.12,4.25a.74.74,0,0,0,1.07,0l4.12-4.25A6.89,6.89,0,0,0,60.76,2Zm-1.08,8.49L56.1,14.17l-3.57-3.69a5.39,5.39,0,0,1,0-7.45,4.94,4.94,0,0,1,7.15,0A5.39,5.39,0,0,1,59.68,10.48ZM56.1,3.81a2,2,0,1,0,2,2A2,2,0,0,0,56.1,3.81Zm0,3.2a1.2,1.2,0,1,1,1.2-1.2A1.2,1.2,0,0,1,56.1,7Z"/><circle class="c" cx="46.11" cy="80.06" r="2.51"/><circle class="c" cx="56.1" cy="46.56" r="2.51"/><circle class="c" cx="11.3" cy="22.23" r="2.51"/><circle class="c" cx="25.44" cy="46.56" r="2.51"/><circle class="c" cx="55.89" cy="22.53" r="2.51"/></svg>