<svg xmlns="http://www.w3.org/2000/svg" viewBox="0 0 48 47.16"><defs><style>.a,.b{fill:#ffb043;}.a{opacity:0.15;}.c{fill:#ff7a45;}</style></defs><title>icon_cogs</title><path class="a" d="M6.74,22.74a15.16,15.16,0,1,0,30.31,0h0a15.16,15.16,0,1,0-30.31,0Z"/><path class="b" d="M41.68,8.42a3.79,3.79,0,1,0,3.79,3.79A3.78,3.78,0,0,0,41.68,8.42Zm0,5.9a2.11,2.11,0,1,1,2.11-2.11A2.09,2.09,0,0,1,41.68,14.32Z"/><path class="b" d="M41.68,37.05a3.79,3.79,0,1,1,3.79-3.79A3.77,3.77,0,0,1,41.68,37.05Zm0-5.89a2.11,2.11,0,1,0,2.11,2.1A2.08,2.08,0,0,0,41.68,31.16Z"/><path class="b" d="M44.21,18.53A3.79,3.79,0,1,0,48,22.32,3.77,3.77,0,0,0,44.21,18.53Zm0,5.89a2.11,2.11,0,1,1,2.11-2.1A2.08,2.08,0,0,1,44.21,24.42Z"/><path class="b" d="M35,39.58a3.79,3.79,0,1,0,3.79,3.79A3.77,3.77,0,0,0,35,39.58Zm0,5.89a2.11,2.11,0,1,1,2.1-2.1A2.08,2.08,0,0,1,35,45.47Z"/><path class="c" d="M16.84,5.47a17.93,17.93,0,0,0-4.12,1.69L9.6,4.63l-6,6.06,2.53,3a22.3,22.3,0,0,0-1.69,4H0v9.26H4.38a23.26,23.26,0,0,0,1.85,4.89L3.62,35.12l6,6.06,3.12-2.86a18.14,18.14,0,0,0,4.12,1.76v4.55h8.42V38.74H23.58V43h-5V38.82l-.68-.17a16,16,0,0,1-4.8-2l-.5-.34L9.68,38.91,5.89,35l2.45-3.11L8,31.41a18.42,18.42,0,0,1-2.11-5.47l-.16-.68H1.68V19.37H5.81L6,18.69a16.91,16.91,0,0,1,2-4.63l.34-.59L5.89,10.78,9.68,6.91l2.87,2.35.5-.33A14.58,14.58,0,0,1,17.85,7l.68-.17V3.28h5V5.81h1.68V1.6H16.84Z"/><path class="b" d="M36.63,0a3.79,3.79,0,1,0,3.79,3.79A3.77,3.77,0,0,0,36.63,0Zm0,5.89a2.07,2.07,0,0,1-2.1-2.1,2.11,2.11,0,1,1,4.21,0A2.08,2.08,0,0,1,36.63,5.89Z"/><path class="b" d="M29.47,23.58V21.89H27.79v1.69ZM27.79,27H25.26v1.68h2.53Zm13.52-5.06H31.16v1.69h10.4a2.85,2.85,0,0,1-.3-1.26h0A3,3,0,0,1,41.31,21.89Zm-19.5-5.05a6,6,0,0,0-6,5.9,6,6,0,0,0,6,5.89h1.77V27H21.81a4.29,4.29,0,0,1-4.29-4.21,4.35,4.35,0,0,1,4.29-4.21h9.94l3.87-5.9h3.16a3,3,0,0,1,0-.42h0A2.92,2.92,0,0,1,39,11H34.78l-4,5.89Zm3.45-6.73H23.58v1.68h1.68ZM35.62,32,31.83,27H29.47v1.68H31l3.79,5.05h4a2.72,2.72,0,0,1,0-.42A2.85,2.85,0,0,1,39,32Zm-13.73.84C15.83,32.84,11,28.29,11,22.74A11.26,11.26,0,0,1,21.89,11.79V10.11A13,13,0,0,0,9.26,22.74c0,6.48,5.65,11.79,12.63,11.79h5.48l5.09,7.27a3,3,0,0,1,1.27-1.11l-5.52-7.85Zm3.37-11H23.58v1.69h1.68ZM34.77,6.06a3,3,0,0,1-1-1.46l-4.76,5.51H27.79v1.68h2Z"/></svg>