<svg xmlns="http://www.w3.org/2000/svg" viewBox="0 0 41.6 48"><defs><style>.a,.b{fill:#ffb043;}.a{opacity:0.1;}.c,.d{fill:#ff7e39;}.c{opacity:0.5;}</style></defs><title>icon_user</title><path class="a" d="M.8,24a20,20,0,0,0,40,0h0a20,20,0,0,0-40,0Z"/><path class="b" d="M10.14,16.92l-3.49-2-.8,1.38,3.48,2A12.9,12.9,0,0,1,10.14,16.92ZM20,11.23a14.23,14.23,0,0,1,1.6,0v-4H20ZM35.75,16.3,35,14.91l-3.49,2a13.84,13.84,0,0,1,.8,1.39ZM31.46,31.08l3.49,2,.8-1.38-3.49-2A12,12,0,0,1,31.46,31.08Zm-25.61.63.8,1.38,3.49-2a12.06,12.06,0,0,1-.79-1.39ZM20,40.8h1.6v-4a12.2,12.2,0,0,1-1.6,0Z"/><path class="b" d="M20.8,37.6A13.6,13.6,0,1,1,34.4,24,13.59,13.59,0,0,1,20.8,37.6Zm0-25.6a12,12,0,1,0,12,12A12,12,0,0,0,20.8,12ZM9.22,9.69l5.63-3.21.79,1.39L10,11.08Zm-6,9.51H4.8v9.6H3.2Zm6,19.11.8-1.39,5.62,3.21-.79,1.39ZM26,40.09l5.63-3.21.79,1.39-5.62,3.21ZM36.8,19.2h1.6v9.6H36.8ZM26,7.91l.8-1.39,5.62,3.21-.79,1.39Z"/><path class="c" d="M20.8,26.4c-2.4,0-7.2.72-7.2,3.2v1.6a11.36,11.36,0,0,0,7.2,2.64A10.93,10.93,0,0,0,28,31.2V29.6C28,27.12,23.2,26.4,20.8,26.4Z"/><path class="d" d="M20.8,24a3.94,3.94,0,0,1-4-3.92V18.24a4,4,0,0,1,8,0v1.84A3.94,3.94,0,0,1,20.8,24Zm0-8a2.34,2.34,0,0,0-2.4,2.32v1.84a2.4,2.4,0,0,0,4.8,0V18.32A2.34,2.34,0,0,0,20.8,16Zm8,15.2H27.2V29.6c0-1.6-3.68-2.4-6.4-2.4s-6.4.8-6.4,2.4v1.6H12.8V29.6c0-3.2,5.2-4,8-4s8,.8,8,4Z"/><path class="b" d="M20.8,8a4,4,0,0,1-4-4,4,4,0,0,1,8,0A4,4,0,0,1,20.8,8Zm0-6.4A2.36,2.36,0,0,0,18.4,4a2.4,2.4,0,1,0,4.8,0A2.36,2.36,0,0,0,20.8,1.6Z"/><path class="b" d="M37.6,17.6a4,4,0,1,1,4-4A4,4,0,0,1,37.6,17.6Zm0-6.4A2.4,2.4,0,1,0,40,13.6,2.36,2.36,0,0,0,37.6,11.2Z"/><path class="b" d="M37.6,38.4a4,4,0,1,1,4-4A4,4,0,0,1,37.6,38.4Zm0-6.4A2.4,2.4,0,1,0,40,34.4,2.36,2.36,0,0,0,37.6,32Z"/><path class="b" d="M4,38.4a4,4,0,0,1,0-8,4,4,0,0,1,0,8ZM4,32a2.4,2.4,0,1,0,0,4.8A2.4,2.4,0,1,0,4,32Z"/><path class="b" d="M4,17.6a4,4,0,0,1,0-8,4,4,0,0,1,0,8Zm0-6.4A2.4,2.4,0,0,0,4,16a2.4,2.4,0,0,0,0-4.8Z"/><path class="b" d="M20.8,48a4,4,0,1,1,4-4A4,4,0,0,1,20.8,48Zm0-6.4A2.4,2.4,0,1,0,23.2,44,2.36,2.36,0,0,0,20.8,41.6Z"/></svg>