<svg xmlns="http://www.w3.org/2000/svg" viewBox="0 0 28 28"><defs><style>.cls-1{opacity:0;}.cls-2{fill:#fff;}.cls-3{fill:#f90;}</style></defs><title>icon_tabbar_pj2</title><g id="图层_2" data-name="图层 2"><g id="图层_1-2" data-name="图层 1"><g class="cls-1"><path class="cls-2" d="M26,2V26H2V2H26m2-2H0V28H28V0Z"/></g><path class="cls-3" d="M26.12,7.68V7L23.07,5.23h0l-.91-.52h0L19.44,3.14h0l-.88-.51L14,0,1.88,7V21L14,28l4.56-2.63.88-.51h0L23,22.79l.05,0h0L26.12,21v-.68A12.57,12.57,0,0,0,18.47,14,12.57,12.57,0,0,0,26.12,7.68Zm-4.62-1A11.51,11.51,0,0,1,12,13.45a12.51,12.51,0,0,0,7.1-8.22ZM8,13.45A12.5,12.5,0,0,0,15.44,3.14l2.72,1.57A11.5,11.5,0,0,1,8,13.45ZM14,2.31l.47.27A11.5,11.5,0,0,1,3.88,13.46V8.15Zm4.16,21-2.72,1.57A12.5,12.5,0,0,0,8,14.55,11.5,11.5,0,0,1,18.16,23.29ZM3.88,19.85V14.54A11.5,11.5,0,0,1,14.47,25.42l-.47.27ZM12,14.55a11.51,11.51,0,0,1,9.54,6.81l-2.44,1.41A12.51,12.51,0,0,0,12,14.55Zm12.16,4.51v.79l-1.76,1A12.54,12.54,0,0,0,16,14.55,11.44,11.44,0,0,1,24.12,19.06ZM16,13.45a12.54,12.54,0,0,0,6.4-6.31l1.76,1v.79A11.44,11.44,0,0,1,16,13.45Z"/></g></g></svg>