<svg xmlns="http://www.w3.org/2000/svg" viewBox="0 0 28 28"><defs><style>.a{opacity:0;}.b{fill:#fff;}.c{fill:#f90;}</style></defs><title>icon_tabbar_me</title><g class="a"><path class="b" d="M26,2V26H2V2H26m2-2H0V28H28V0Z"/></g><path class="c" d="M14,3.5A4.5,4.5,0,1,1,9.5,8,4.51,4.51,0,0,1,14,3.5m0-2A6.5,6.5,0,1,0,20.5,8,6.5,6.5,0,0,0,14,1.5Z"/><path class="c" d="M17.92,17.5a6,6,0,0,1,6,6v1H4.08v-1a6,6,0,0,1,6-6h7.84m0-2H10.08a8,8,0,0,0-8,8v1a2,2,0,0,0,2,2H23.92a2,2,0,0,0,2-2v-1a8,8,0,0,0-8-8Z"/></svg>