<svg xmlns="http://www.w3.org/2000/svg" viewBox="0 0 24 24"><defs><style>.a{opacity:0;}.b{fill:#fff;}.c{fill:#f30;}</style></defs><title>icon_off</title><g class="a"><path class="b" d="M22,2V22H2V2H22m2-2H0V24H24V0Z"/></g><path class="c" d="M12,14.5a16.35,16.35,0,0,0-8.39,2.3h0l-2,1.15V18L12,24l10.39-6v0l-2-1.17A16.29,16.29,0,0,0,12,14.5Zm0,7.19L4.57,17.4a15.48,15.48,0,0,1,14.86,0Z"/><rect class="c" x="11.05" y="1.48" width="2" height="6"/><path class="c" d="M13.85,1.51v2.1a5,5,0,1,1-3.6,0V1.48a7,7,0,1,0,3.6,0Z"/></svg>