<svg xmlns="http://www.w3.org/2000/svg" viewBox="0 0 24 24.01"><defs><style>.a{opacity:0;}.b{fill:#fff;}.c{fill:#b543e0;}</style></defs><title>icon_talk</title><g class="a"><path class="b" d="M22,2V22H2V2H22m2-2H0V24H24V0Z"/></g><rect class="c" x="17.83" y="9.25" width="3.99" height="2"/><rect class="c" x="5.83" y="9.25" width="3.99" height="2"/><rect class="c" x="11.83" y="9.25" width="3.99" height="2"/><rect class="c" x="5.83" y="13.29" width="3.99" height="2"/><rect class="c" x="11.83" y="13.29" width="3.99" height="2"/><polygon class="c" points="19.82 17.14 12 21.69 3.68 16.85 3.68 7.16 12 2.31 20.82 7.44 21.82 5.72 12 0 1.68 6 1.68 18 12 24.01 21.82 18.29 21.82 18.29 21.82 18.29 21.82 14.38 19.82 14.38 19.82 17.14"/></svg>