<svg xmlns="http://www.w3.org/2000/svg" viewBox="0 0 24 23.88"><defs><style>.cls-1{fill:#f90;}</style></defs><title>icon_setting</title><g id="图层_2" data-name="图层 2"><g id="图层_1-2" data-name="图层 1"><path class="cls-1" d="M23.6,9.94h-.41a.8.8,0,0,1-.8-.8v-3a.39.39,0,0,0-.2-.35L19.62,4.34a.8.8,0,0,1-.29-1.09l.2-.36a.39.39,0,0,0-.14-.54L16.61.75a.39.39,0,0,0-.54.14l-.21.36a.8.8,0,0,1-1.09.29L12.2.05a.41.41,0,0,0-.4,0L9.23,1.54a.8.8,0,0,1-1.09-.29L7.93.89A.39.39,0,0,0,7.39.75L4.61,2.35a.39.39,0,0,0-.14.54l.2.36a.8.8,0,0,1-.29,1.09L1.81,5.82a.39.39,0,0,0-.2.35v3a.8.8,0,0,1-.8.8H.4a.4.4,0,0,0-.4.4v3.2a.4.4,0,0,0,.4.4H.81a.8.8,0,0,1,.8.8v3a.38.38,0,0,0,.2.34l2.57,1.49a.8.8,0,0,1,.29,1.09l-.2.35a.4.4,0,0,0,.14.55l2.78,1.6A.39.39,0,0,0,7.93,23l.21-.35a.8.8,0,0,1,1.09-.29l2.57,1.48a.41.41,0,0,0,.4,0l2.57-1.48a.8.8,0,0,1,1.09.29l.21.35a.39.39,0,0,0,.54.15l2.78-1.6a.4.4,0,0,0,.14-.55l-.2-.35a.8.8,0,0,1,.29-1.09l2.57-1.49a.38.38,0,0,0,.2-.34v-3a.8.8,0,0,1,.8-.8h.41a.4.4,0,0,0,.4-.4v-3.2A.4.4,0,0,0,23.6,9.94Zm-4.1,2a7.5,7.5,0,0,1-15,0h0a7.5,7.5,0,1,1,15,0Z"/></g></g></svg>