<svg xmlns="http://www.w3.org/2000/svg" viewBox="0 0 24 24"><defs><style>.cls-1{opacity:0;}.cls-2{fill:#fff;}.cls-3{fill:#f30;}</style></defs><title>icon_off</title><g id="图层_2" data-name="图层 2"><g id="图层_1-2" data-name="图层 1"><g class="cls-1"><path class="cls-2" d="M22,2V22H2V2H22m2-2H0V24H24V0Z"/></g><path class="cls-3" d="M12,0,1.61,6V18L12,24l10.39-6V6Zm0,2.31L19.43,6.6A15.43,15.43,0,0,1,12,8.5,15.38,15.38,0,0,1,4.57,6.6Zm0,19.38L4.57,17.4a15.48,15.48,0,0,1,14.86,0Zm8.39-4.88a16.42,16.42,0,0,0-16.78,0V7.2A16.35,16.35,0,0,0,12,9.5a16.38,16.38,0,0,0,8.39-2.3ZM8.74,13.26H7V10.74H8.32l.42-.47h-3v3.46H10V10.27H8.74Zm5.1-2.52.26-.47H10.44v3.46h1.22V12.2h2.08l.28-.47H11.66v-1Zm1.95,1.46h2.09l.28-.47H15.79v-1H18l.26-.47H14.58v3.46h1.21Z"/></g></g></svg>